<svg xmlns="http://www.w3.org/2000/svg" viewBox="0 0 30.03 30.01"><defs><style>.cls-1{fill:none;}.cls-2{fill:#566c91;}</style></defs><title>资源 1100</title><g id="图层_2" data-name="图层 2"><g id="图层_1-2" data-name="图层 1"><rect class="cls-1" x="3.59" y="12.82" width="17.84" height="1.52"/><rect class="cls-1" x="3.59" y="3.76" width="10.55" height="1.52"/><rect class="cls-1" x="3.59" y="8.29" width="17.84" height="1.52"/><rect class="cls-1" x="22.33" y="26.43" width="1.47" height="1.33"/><path class="cls-1" d="M23.47,19.76a2.63,2.63,0,0,0-3,2.13l1.23.38a1.49,1.49,0,0,1,1.71-1.37,1.09,1.09,0,0,1,1.15,1c.08.53-.24,1-.95,1.49a2.21,2.21,0,0,0-1.15,1.94v.35h1.23v-.3a1.2,1.2,0,0,1,.71-1.14,2.73,2.73,0,0,0,1.51-2.29A2.24,2.24,0,0,0,23.47,19.76Z"/><path class="cls-2" d="M16.56,18.88h-13V17.36H18.06a8.26,8.26,0,0,1,5.05-1.71,8.38,8.38,0,0,1,1.68.17V1.3A1.33,1.33,0,0,0,23.45,0H1.35A1.33,1.33,0,0,0,0,1.3V25.89a1.33,1.33,0,0,0,1.35,1.3H16a7.52,7.52,0,0,1,.51-8.3ZM3.59,3.76H14.14V5.28H3.59Zm0,4.53H21.43V9.81H3.59Zm0,4.54H21.43v1.52H3.59Z"/><path class="cls-2" d="M26.63,17.82a7,7,0,0,0-6.8,0,6.41,6.41,0,0,0,0,11.32,7,7,0,0,0,6.8,0,6.41,6.41,0,0,0,0-11.32ZM23.8,27.77H22.33V26.43H23.8Zm.59-3.54a1.2,1.2,0,0,0-.71,1.14v.3H22.44v-.35a2.21,2.21,0,0,1,1.15-1.94c.71-.46,1-1,.95-1.49a1.09,1.09,0,0,0-1.15-1,1.49,1.49,0,0,0-1.71,1.37l-1.23-.38a2.63,2.63,0,0,1,3-2.13,2.24,2.24,0,0,1,2.42,2.18A2.73,2.73,0,0,1,24.38,24.23Z"/></g></g></svg>