<svg xmlns="http://www.w3.org/2000/svg" width="23" height="26" viewBox="0 0 23 26">
  <metadata><?xpacket begin="﻿" id="W5M0MpCehiHzreSzNTczkc9d"?>
<x:xmpmeta xmlns:x="adobe:ns:meta/" x:xmptk="Adobe XMP Core 5.6-c140 79.160451, 2017/05/06-01:08:21        ">
   <rdf:RDF xmlns:rdf="http://www.w3.org/1999/02/22-rdf-syntax-ns#">
      <rdf:Description rdf:about=""/>
   </rdf:RDF>
</x:xmpmeta>
                                                                                                    
                                                                                                    
                                                                                                    
                                                                                                    
                                                                                                    
                                                                                                    
                                                                                                    
                                                                                                    
                                                                                                    
                                                                                                    
                                                                                                    
                                                                                                    
                                                                                                    
                                                                                                    
                                                                                                    
                                                                                                    
                                                                                                    
                                                                                                    
                                                                                                    
                                                                                                    
                           
<?xpacket end="w"?></metadata>
<defs>
    <style>
      .cls-1 {
        fill: #9596b5;
        fill-rule: evenodd;
      }
    </style>
  </defs>
  <path id="权益介绍" class="cls-1" d="M49.08,647H27.92a0.925,0.925,0,0,1-.92-0.929V621.929A0.925,0.925,0,0,1,27.92,621H49.08a0.925,0.925,0,0,1,.92.929v24.142a0.926,0.926,0,0,1-.92.929h0Zm-15.2-20.2a0.235,0.235,0,0,0-.067-0.165,0.23,0.23,0,0,0-.163-0.067H30.91a0.23,0.23,0,0,0-.163.067,0.235,0.235,0,0,0-.067.165V628.2a0.235,0.235,0,0,0,.067.165,0.226,0.226,0,0,0,.163.067h2.739a0.231,0.231,0,0,0,.23-0.232V626.8Zm12.44,0a0.23,0.23,0,0,0-.229-0.232H35.27a0.226,0.226,0,0,0-.163.067,0.235,0.235,0,0,0-.067.165V628.2a0.235,0.235,0,0,0,.067.165,0.226,0.226,0,0,0,.163.067H46.09a0.23,0.23,0,0,0,.229-0.232V626.8Zm0,6.5a0.232,0.232,0,0,0-.229-0.232H30.91a0.231,0.231,0,0,0-.163.068,0.235,0.235,0,0,0-.067.164V634.7a0.231,0.231,0,0,0,.23.233H46.09a0.231,0.231,0,0,0,.229-0.233V633.3Zm0,6.5a0.231,0.231,0,0,0-.229-0.233H30.91a0.231,0.231,0,0,0-.23.233V641.2a0.232,0.232,0,0,0,.23.233H46.09a0.232,0.232,0,0,0,.229-0.233V639.8Zm0,0" transform="translate(-27 -621)"/>
</svg>
