<svg xmlns="http://www.w3.org/2000/svg" width="21" height="21" viewBox="0 0 14 14">
  <metadata><?xpacket begin="﻿" id="W5M0MpCehiHzreSzNTczkc9d"?>
<x:xmpmeta xmlns:x="adobe:ns:meta/" x:xmptk="Adobe XMP Core 5.6-c138 79.159824, 2016/09/14-01:09:01        ">
   <rdf:RDF xmlns:rdf="http://www.w3.org/1999/02/22-rdf-syntax-ns#">
      <rdf:Description rdf:about=""/>
   </rdf:RDF>
</x:xmpmeta>
                                                                                                    
                                                                                                    
                                                                                                    
                                                                                                    
                                                                                                    
                                                                                                    
                                                                                                    
                                                                                                    
                                                                                                    
                                                                                                    
                                                                                                    
                                                                                                    
                                                                                                    
                                                                                                    
                                                                                                    
                                                                                                    
                                                                                                    
                                                                                                    
                                                                                                    
                                                                                                    
                           
<?xpacket end="w"?></metadata>
<defs>
    <style>
      .cls-1 {
        fill: #ff8400;
        fill-rule: evenodd;
      }
    </style>
  </defs>
  <path id="形状_818" data-name="形状 818" class="cls-1" d="M813.631,452.313c0.483-.656,1.114-1.454,2.041-1.292,1.331,0.34,3.069,1.838,2.011,3.292-2.238,3.041-4.549,6.034-6.821,9.055a2.98,2.98,0,0,1-1.828.828c3.652-.175,7.311-0.038,10.966-0.076,0,0.22-.01.66-0.01,0.88q-7,0-13.99,0c0-.22,0-0.657,0-0.877l1.014,0a15.49,15.49,0,0,1,.1-3.124c2.111-2.931,4.363-5.769,6.511-8.68m0.045,1.419c0.717,0.536,1.431,1.083,2.152,1.619a8.582,8.582,0,0,0,1.331-1.987,2.293,2.293,0,0,0-1.807-1.488c-0.787.344-1.131,1.241-1.676,1.856m-5.8,7.663c0,0.736.007,1.474,0.007,2.21,0.855-.313,1.986-0.258,2.531-1.093,1.617-2.161,3.255-4.309,4.879-6.464-0.717-.543-1.441-1.079-2.162-1.622C811.393,456.76,809.624,459.069,807.879,461.4Z" transform="translate(-806 -451)"/>
</svg>
