<?xml version="1.0" standalone="no"?><!DOCTYPE svg PUBLIC "-//W3C//DTD SVG 1.1//EN" "http://www.w3.org/Graphics/SVG/1.1/DTD/svg11.dtd"><svg t="1514257585254" class="icon" style="" viewBox="0 0 1024 1024" version="1.1" xmlns="http://www.w3.org/2000/svg" p-id="1957" xmlns:xlink="http://www.w3.org/1999/xlink" width="32" height="32"><defs><style type="text/css"></style></defs><path d="M509.874593 62.145385c-247.526513 0-448.185602 200.659089-448.185602 448.185602s200.659089 448.185602 448.185602 448.185602 448.185602-200.659089 448.185602-448.185602S757.400083 62.145385 509.874593 62.145385zM511.450485 206.575846c25.767873 0 46.731324 20.962427 46.731324 46.730301s-20.963451 46.731324-46.731324 46.731324-46.731324-20.963451-46.731324-46.731324S485.683634 206.575846 511.450485 206.575846zM559.205115 766.042927c0 26.331715-21.422915 47.75463-47.75463 47.75463-26.331715 0-47.75463-21.422915-47.75463-47.75463L463.695854 413.81377c0-26.330692 21.422915-47.753607 47.75463-47.753607 26.331715 0 47.75463 21.422915 47.75463 47.753607L559.205115 766.042927z" p-id="1958" fill="#3388ff"></path></svg>