<svg xmlns="http://www.w3.org/2000/svg" width="186.469" height="164" viewBox="0 0 186.469 164">
  <defs>
    <style>
      .cls-1 {
        fill: #f2f2f2;
        fill-rule: evenodd;
      }
    </style>
  </defs>
  <path id="形状_2" data-name="形状 2" class="cls-1" d="M1053.34,503c-2.77-43.372-42.56-78.183-91.791-78.944-50.131-.774-91.563,34.039-94.371,78.444q-0.19-2.978-.149-6c0.4-26.036,14.065-49.081,35.149-64.074l-0.006,0V407.945l8.721-8.713,7.222,7.215V387.318l12.4-12.392,12.738,12.725v26.115h2.5v-68.7h33.133v69.345h1.832V400.625l10.406-10.4,10.4,10.4V423.15c31.21,13.916,52.47,42.966,51.96,76.225C1053.47,500.591,1053.41,501.8,1053.34,503Zm-41.65-97.218h-4.17v14.971a0.75,0.75,0,0,1-1.5,0V405.034a0.752,0.752,0,0,1,.75-0.749h3.11L992.456,386.88,981.83,397.5a0.749,0.749,0,1,1-1.06-1.058l11.156-11.145a0.75,0.75,0,0,1,1.059,0L1012.22,404.5a0.767,0.767,0,0,1,.16.816A0.753,0.753,0,0,1,1011.69,405.782ZM981.3,340.493H944.42V381.33a0.749,0.749,0,0,1-1.279.529l-11.5-11.489-14.277,14.264v15.409a0.75,0.75,0,0,1-1.279.53l-3.716-3.713-5.132,5.126a0.749,0.749,0,0,1-1.279-.529v-6.071h-2.227v7.964a0.749,0.749,0,0,1-.219.529l-7.763,7.755a0.749,0.749,0,0,1-1.06-1.058l7.544-7.536v-8.4a0.748,0.748,0,0,1,.749-0.748h3.726a0.749,0.749,0,0,1,.749.748v5.013l4.382-4.378a0.751,0.751,0,0,1,1.06,0l2.966,2.964V384.324a0.746,0.746,0,0,1,.22-0.529l15.026-15.012a0.749,0.749,0,0,1,1.06,0l10.75,10.74V339.745a0.75,0.75,0,0,1,.749-0.749H981.3A0.749,0.749,0,1,1,981.3,340.493ZM913.368,462.345l9.957,14.3V462.238h2.6v18.746h-2.53l-0.074-.107L913.31,466.421v14.563h-2.6V462.238h2.581Zm21.641,4.569a6.157,6.157,0,0,1,4.921,2.131,8.268,8.268,0,0,1,.027,10.139,6.242,6.242,0,0,1-4.948,2.158,6.167,6.167,0,0,1-4.923-2.158,7.381,7.381,0,0,1-1.747-5.043,7.521,7.521,0,0,1,1.749-5.1A6.154,6.154,0,0,1,935.009,466.914Zm-3.073,10.709a3.521,3.521,0,0,0,3.073,1.508,3.67,3.67,0,0,0,3.1-1.512,6.6,6.6,0,0,0-.006-6.988,3.663,3.663,0,0,0-3.1-1.5,3.518,3.518,0,0,0-3.071,1.506h0A6.607,6.607,0,0,0,931.936,477.623Zm22.225-2.949a4.856,4.856,0,0,0,1.573,3.338,5.692,5.692,0,0,0,3.551.966,6.7,6.7,0,0,0,3.5-.807,2.332,2.332,0,0,0,1.262-2.087,2.715,2.715,0,0,0-1.685-2.464,23.2,23.2,0,0,0-3.814-1.309,29.038,29.038,0,0,1-4.242-1.5,4.127,4.127,0,0,1-2.231-3.747,4.414,4.414,0,0,1,2.135-3.916A8.429,8.429,0,0,1,959,461.88a7.812,7.812,0,0,1,5.016,1.46,6.3,6.3,0,0,1,2.19,4.516l0.027,0.274h-2.558l-0.035-.208a4.387,4.387,0,0,0-1.446-2.788,5.172,5.172,0,0,0-3.3-.915,6,6,0,0,0-3.042.628,2.28,2.28,0,0,0,.246,4.117,19.764,19.764,0,0,0,3.3,1.13,24.487,24.487,0,0,1,4.818,1.788,4.553,4.553,0,0,1,2.4,4.074,4.666,4.666,0,0,1-2.022,3.984,9.159,9.159,0,0,1-5.314,1.4,8.556,8.556,0,0,1-5.215-1.43,6.812,6.812,0,0,1-2.478-5.191l-0.018-.267h2.561Zm16.911-5.83a4.718,4.718,0,0,1,1.471-1.285,5.036,5.036,0,0,1,2.526-.645,4.766,4.766,0,0,1,3.742,1.439A5.785,5.785,0,0,1,980.1,472.4v8.58h-2.547V472.71a4.03,4.03,0,0,0-.81-2.675,3.044,3.044,0,0,0-2.368-.909,2.864,2.864,0,0,0-2.338,1.134,4.388,4.388,0,0,0-.968,2.936v7.788h-2.545v-19.1h2.545v6.964Zm17.836-1.93a6.156,6.156,0,0,1,4.922,2.132,8.272,8.272,0,0,1,.026,10.138,6.242,6.242,0,0,1-4.948,2.158,6.165,6.165,0,0,1-4.922-2.158,7.384,7.384,0,0,1-1.749-5.043,7.519,7.519,0,0,1,1.751-5.1A6.149,6.149,0,0,1,988.908,466.914Zm-3.073,10.709a3.522,3.522,0,0,0,3.073,1.508,3.668,3.668,0,0,0,3.1-1.512,6.6,6.6,0,0,0,0-6.988,3.665,3.665,0,0,0-3.1-1.5,3.518,3.518,0,0,0-3.071,1.506h0A6.6,6.6,0,0,0,985.835,477.623Zm14.325-8.761a4.943,4.943,0,0,1,4.15-1.948,5.644,5.644,0,0,1,4.7,2.219,8.864,8.864,0,0,1,.02,10.015,5.568,5.568,0,0,1-4.62,2.194,4.88,4.88,0,0,1-4.13-2.15v6.853h-2.541V467.272h2.421v1.59Zm0.05,5.432a5.466,5.466,0,0,0,1.07,3.548,3.224,3.224,0,0,0,2.7,1.314,3.545,3.545,0,0,0,3.04-1.383,6.067,6.067,0,0,0,.95-3.606,6.361,6.361,0,0,0-.9-3.592,3.42,3.42,0,0,0-3.02-1.475,3.265,3.265,0,0,0-2.89,1.452v0a5.842,5.842,0,0,0-.95,3.482v0.255Z" transform="translate(-867.031 -339)"/>
</svg>
