<svg xmlns="http://www.w3.org/2000/svg" width="34" height="39" viewBox="0 0 34 39">
  <metadata><?xpacket begin="﻿" id="W5M0MpCehiHzreSzNTczkc9d"?>
<x:xmpmeta xmlns:x="adobe:ns:meta/" x:xmptk="Adobe XMP Core 5.6-c138 79.159824, 2016/09/14-01:09:01        ">
   <rdf:RDF xmlns:rdf="http://www.w3.org/1999/02/22-rdf-syntax-ns#">
      <rdf:Description rdf:about=""/>
   </rdf:RDF>
</x:xmpmeta>
                                                                                                    
                                                                                                    
                                                                                                    
                                                                                                    
                                                                                                    
                                                                                                    
                                                                                                    
                                                                                                    
                                                                                                    
                                                                                                    
                                                                                                    
                                                                                                    
                                                                                                    
                                                                                                    
                                                                                                    
                                                                                                    
                                                                                                    
                                                                                                    
                                                                                                    
                                                                                                    
                           
<?xpacket end="w"?></metadata>
<defs>
    <style>
      .cls-1 {
        fill: #fff;
        fill-rule: evenodd;
      }
    </style>
  </defs>
  <path id="形状_2" data-name="形状 2" class="cls-1" d="M47,817.875a17.063,17.063,0,1,0,17,17.062A17.03,17.03,0,0,0,47,817.875Zm0,30.773a13.711,13.711,0,1,1,13.659-13.711A13.686,13.686,0,0,1,47,848.648Zm16.042-24.711a7.292,7.292,0,0,0-12.092-8.1,19.437,19.437,0,0,1,12.093,8.1h0Zm-19.99-8.1a7.3,7.3,0,0,0-12.093,8.1A19.434,19.434,0,0,1,43.052,815.841Zm1.52,9.346H47v12.188H44.572V825.187ZM47,834.937h7.285v2.438H47v-2.438Z" transform="translate(-30 -813)"/>
</svg>
