<svg xmlns="http://www.w3.org/2000/svg" width="200" height="200" viewBox="0 0 200 200">
  <metadata><?xpacket begin="﻿" id="W5M0MpCehiHzreSzNTczkc9d"?>
<x:xmpmeta xmlns:x="adobe:ns:meta/" x:xmptk="Adobe XMP Core 5.6-c138 79.159824, 2016/09/14-01:09:01        ">
   <rdf:RDF xmlns:rdf="http://www.w3.org/1999/02/22-rdf-syntax-ns#">
      <rdf:Description rdf:about=""/>
   </rdf:RDF>
</x:xmpmeta>
                                                                                                    
                                                                                                    
                                                                                                    
                                                                                                    
                                                                                                    
                                                                                                    
                                                                                                    
                                                                                                    
                                                                                                    
                                                                                                    
                                                                                                    
                                                                                                    
                                                                                                    
                                                                                                    
                                                                                                    
                                                                                                    
                                                                                                    
                                                                                                    
                                                                                                    
                                                                                                    
                           
<?xpacket end="w"?></metadata>
<defs>
    <style>
      .cls-1 {
        fill-rule: evenodd;
      }
    </style>
  </defs>
  <path id="形状_3" data-name="形状 3" class="cls-1" d="M617,2445H592.44l3.34,3.4H617a21.586,21.586,0,0,1,21.6,21.6v21.04l3.4,3.32V2470A25.009,25.009,0,0,0,617,2445ZM467,2641.6a21.586,21.586,0,0,1-21.6-21.6v-22.5l-3.4-3.38V2620a25.009,25.009,0,0,0,25,25h25.34l-3.3-3.4H467ZM445.4,2470a21.586,21.586,0,0,1,21.6-21.6h21.9l3.4-3.4H467a25.009,25.009,0,0,0-25,25v24.4l3.4-3.28V2470Zm193.2,150a21.586,21.586,0,0,1-21.6,21.6H595.4l-3.26,3.4H617a25.009,25.009,0,0,0,25-25v-25.92l-3.4,3.4V2620h0Zm-165.34-96.18a3.683,3.683,0,0,0-3.68-3.68,3.5,3.5,0,0,0-3.12,1.88l-0.3-.14s-8.24,30.1,1.14,47.52l0.4-.12a3.387,3.387,0,0,0,3.28,2.58,3.33,3.33,0,0,0,3.32-3.4,3.5,3.5,0,0,0-.26-1.3l0.04-.02s-8.02-21.32-1.16-41.76a3.715,3.715,0,0,0,.34-1.56h0ZM605.3,2557a3.35,3.35,0,0,0,2.8-1.5l0.64,0.32s1.82-41.44-20.34-58.82c0,0-28.18-28.92-72.38-12.44v0.02a2.786,2.786,0,0,0-2,2.74,2.842,2.842,0,0,0,2.84,2.86c0.08,0,.16-0.02.24-0.02l0.02,0.08s40.2-13.44,64.48,9.04c0,0,23.88,19.06,20.36,53.16l0.1,0.04a3.221,3.221,0,0,0-.18,1.08,3.4,3.4,0,0,0,3.42,3.44h0Zm-98.46,33.86a2.934,2.934,0,0,0,.2-1.12,2.97,2.97,0,0,0-2.96-2.98,2.859,2.859,0,0,0-2.7,1.9l-0.14-.06c-1.98,6.48-6.8,14.7-6.8,14.7l0.1,0.06a3.493,3.493,0,0,0-.94,2.4,3.414,3.414,0,0,0,3.4,3.42,3.325,3.325,0,0,0,3.26-2.7c3-4.84,6.64-15.6,6.64-15.6Zm2.34-96.14-0.14-.14a3.18,3.18,0,0,0,.86-2.16,3.081,3.081,0,0,0-3.08-3.08,2.941,2.941,0,0,0-2.12.88l-0.04-.02c-35.14,21.88-28.3,66.76-28.3,66.76a58.226,58.226,0,0,1,0,27.14l0.1,0.06a3.51,3.51,0,0,0-.96,2.4,3.4,3.4,0,0,0,3.4,3.4,3.334,3.334,0,0,0,3.28-2.86c5.22-12.18-.16-36.94-0.16-36.94-1.36-40.72,27.16-55.44,27.16-55.44h0ZM471.9,2509.3a3.181,3.181,0,0,0-.78,2.08,3.086,3.086,0,0,0,3.08,3.1,2.974,2.974,0,0,0,1.96-.74l0.22,0.22c21.96-37.16,54.22-39.66,62.48-39.66a3.862,3.862,0,0,0,.84.1,3,3,0,0,0,.74-0.08,2.955,2.955,0,0,1,.42.02l-0.02-.16a3.461,3.461,0,0,0-1.2-6.7,3.02,3.02,0,0,0-.96.16C491.42,2470.44,473.08,2506.86,471.9,2509.3Zm81.38-10.04,0.06-.16a3.068,3.068,0,0,0,1.12.22,2.894,2.894,0,0,0,2.88-2.94,2.969,2.969,0,0,0-1.82-2.74l0.02-.04c-33.84-8.02-54.3,16.96-54.3,16.96-15.98,15.14-12.44,43-12.44,43,5.58,22.5-2.26,39.6-2.26,39.6l0.06,0.08a3.4,3.4,0,0,0,4.22,5.26l0.24,0.3c11.08-15.3,5.66-40.72,5.66-40.72-5.36-16.42,1.12-31.68,1.12-31.68,17.74-35.28,55.44-27.14,55.44-27.14h0Zm50.84,84.84a3.492,3.492,0,0,0,3.44,3.5,3.419,3.419,0,0,0,3.38-3.4h0.04a104.114,104.114,0,0,0,0-18.16l-0.24.02a3.466,3.466,0,0,0-3.26-2.4,3.394,3.394,0,0,0-3.38,3.46,3.684,3.684,0,0,0,.14.94,119.617,119.617,0,0,1,.04,14.92,3.979,3.979,0,0,0-.16,1.12h0Zm-48.54-108.74-0.02.14c51.48,8.82,58.24,61.22,58.78,66.32a2.984,2.984,0,0,0-.04.42,3.491,3.491,0,0,0,3.48,3.46,3.423,3.423,0,0,0,3.42-3.44v-0.06h-0.04c-3.92-58.4-54.22-71.42-63.12-73.26a3.5,3.5,0,0,0-1.46-.32,3.406,3.406,0,0,0-3.38,3.46,3.454,3.454,0,0,0,2.38,3.28h0Zm25.76,57.9a3.445,3.445,0,0,0-3.28-2.42,3.394,3.394,0,0,0-3.38,3.46,3.35,3.35,0,0,0,.2,1.1l-0.12.04s8.9,23.76.02,72.32a3.07,3.07,0,0,0-.88,2.16,3.039,3.039,0,0,0,3.04,3.04,2.983,2.983,0,0,0,2.08-.86l0.26,0.26s10.26-27.48,2.26-79.2l-0.2.1h0ZM577,2523a3.488,3.488,0,0,0-1.74-3,44.829,44.829,0,0,0-40.08-15.1c-35.18,6.96-35.06,39.6-35.06,39.6a55.249,55.249,0,0,1,2.26,30.54,3.822,3.822,0,0,0-.06.68,3.414,3.414,0,0,0,3.4,3.42,3.3,3.3,0,0,0,3.28-3l0.16,0.02c4.16-11.22-2.26-32.8-2.26-32.8,4.14-28.76,28.28-31.68,28.28-31.68,17.9-4.44,31.48,8.42,35.18,12.42a3.432,3.432,0,0,0,3.24,2.34A3.369,3.369,0,0,0,577,2523h0Zm-43.7-3.96a3.016,3.016,0,0,0-2.82,3.06,3.081,3.081,0,0,0,3.08,3.08,3.57,3.57,0,0,0,.46-0.04l0.04,0.12s24.94-9.56,31.68,19.22c0,0,3.98,35.94-5.6,68.84a2.942,2.942,0,0,0,2.02,5.06,2.851,2.851,0,0,0,2.84-2.9c2.42-9.24,15.14-61.6.76-86.82C565.74,2528.66,552.96,2512.02,533.3,2519.04Zm62.94,81.14c0-.08-0.02-0.18-0.02-0.26l0.06,0.02s2.48-37.58-1.12-64.48c0,0-5.84-28.5-27.16-36.2l-0.04.06a2.677,2.677,0,0,0-1.26-.32,2.76,2.76,0,0,0-1.96,4.64l-0.12.14s23.38,11.74,24.88,38.46c0,0,2.66,28.88,0,56.56l0.18,0.02a3.717,3.717,0,0,0-.26,1.34,3.457,3.457,0,0,0,3.44,3.46,3.377,3.377,0,0,0,3.38-3.44h0Zm-52-1.38s7.32-22.64,1.12-55.44l-0.2.06a3.426,3.426,0,0,0-6.44,1.7,3.27,3.27,0,0,0,.04.44l-0.18.06s7.1,29.28-1.12,50.92l0.26,0.08a3.561,3.561,0,0,0-.36,1.54,3.4,3.4,0,0,0,3.4,3.4,3.334,3.334,0,0,0,3.28-2.84l0.2,0.08h0Zm-11.32-40.72c-5.08-24.3,9.06-23.76,9.06-23.76,16.14-.6,11.32,36.2,11.32,36.2l0.1,0.02a3.265,3.265,0,0,0-.18.98,2.885,2.885,0,0,0,2.88,2.9,2.817,2.817,0,0,0,2.8-2.78h0.04c1.18-13.58-1.12-28.28-1.12-28.28-5.36-18.22-21.5-12.44-21.5-12.44-14.86,4.14-7.92,35.08-7.92,35.08,4.08,24.5-10.18,48.64-10.18,48.64l0.1,0.06a3.493,3.493,0,0,0-.94,2.4,3.4,3.4,0,0,0,3.4,3.4,3.294,3.294,0,0,0,3.26-2.74C539.76,2589.14,532.92,2558.08,532.92,2558.08Zm4.16,48.06a2.6,2.6,0,0,0-1.76.68l-0.14-.1s-4.2,7.44-5.52,9.94a2.944,2.944,0,0,0-.98,2.2,2.906,2.906,0,0,0,2.9,2.92,2.808,2.808,0,0,0,2.48-1.5,21.187,21.187,0,0,0,5.64-10.16l-0.08-.06a2.645,2.645,0,0,0,.24-1.14,2.787,2.787,0,0,0-2.78-2.78h0ZM525,2530.92l-0.14-.1a2.8,2.8,0,0,0,.28-1.22,2.75,2.75,0,0,0-2.746-2.76H522.38a2.635,2.635,0,0,0-1.84.74l-0.06-.06c-10.6,8.5-5.66,33.94-5.66,33.94,5.36,22-7.92,46.38-7.92,46.38a3.23,3.23,0,0,0-.86,2.18,3.15,3.15,0,0,0,3.14,3.16,3,3,0,0,0,2.16-.9l0.08,0.08c11.26-18.3,11.32-44.12,11.32-44.12C515.08,2539.46,525,2530.92,525,2530.92Zm31.12,50.26a2.869,2.869,0,0,0-2.82,2.94v0.06s-1.28,21.6-9.04,32.76l0.08,0.02a3.356,3.356,0,0,0-.94,2.38,3.4,3.4,0,0,0,3.4,3.4,3.322,3.322,0,0,0,3.24-2.62c0.86-1.18,6.26-9.54,8.84-35.2a3.1,3.1,0,0,0,.14-0.86A2.924,2.924,0,0,0,556.12,2581.18Z" transform="translate(-442 -2445)"/>
</svg>
