<svg xmlns="http://www.w3.org/2000/svg" width="24" height="24" viewBox="0 0 24 24">
  <metadata><?xpacket begin="﻿" id="W5M0MpCehiHzreSzNTczkc9d"?>
<x:xmpmeta xmlns:x="adobe:ns:meta/" x:xmptk="Adobe XMP Core 5.6-c138 79.159824, 2016/09/14-01:09:01        ">
   <rdf:RDF xmlns:rdf="http://www.w3.org/1999/02/22-rdf-syntax-ns#">
      <rdf:Description rdf:about=""/>
   </rdf:RDF>
</x:xmpmeta>
                                                                                                    
                                                                                                    
                                                                                                    
                                                                                                    
                                                                                                    
                                                                                                    
                                                                                                    
                                                                                                    
                                                                                                    
                                                                                                    
                                                                                                    
                                                                                                    
                                                                                                    
                                                                                                    
                                                                                                    
                                                                                                    
                                                                                                    
                                                                                                    
                                                                                                    
                                                                                                    
                           
<?xpacket end="w"?></metadata>
<defs>
    <style>
      .cls-1 {
        fill: #888;
        fill-rule: evenodd;
      }
    </style>
  </defs>
  <path id="形状_1" data-name="形状 1" class="cls-1" d="M33.534,1088.5a12,12,0,0,1,20.342,6.8,11.994,11.994,0,0,1-18.1,11.96,0.859,0.859,0,0,1,.89-1.47,10.281,10.281,0,1,0-4.849-7.33,10.11,10.11,0,0,0,1.519,4.08,0.857,0.857,0,1,1-1.441.93,11.982,11.982,0,0,1,.5-13.66,12.251,12.251,0,0,1,1.135-1.31h0Zm7.491,3.67a0.975,0.975,0,1,0,.975-0.98A0.97,0.97,0,0,0,41.025,1092.17ZM42,1102.81h0a0.975,0.975,0,0,1-.969-0.97v-6.77A0.975,0.975,0,0,1,42,1094.1h0a0.975,0.975,0,0,1,.969.97v6.77A0.975,0.975,0,0,1,42,1102.81Z" transform="translate(-30 -1085)"/>
</svg>
