<svg xmlns="http://www.w3.org/2000/svg" width="182" height="182" viewBox="0 0 182 182">
  <metadata><?xpacket begin="﻿" id="W5M0MpCehiHzreSzNTczkc9d"?>
<x:xmpmeta xmlns:x="adobe:ns:meta/" x:xmptk="Adobe XMP Core 5.6-c138 79.159824, 2016/09/14-01:09:01        ">
   <rdf:RDF xmlns:rdf="http://www.w3.org/1999/02/22-rdf-syntax-ns#">
      <rdf:Description rdf:about=""/>
   </rdf:RDF>
</x:xmpmeta>
                                                                                                    
                                                                                                    
                                                                                                    
                                                                                                    
                                                                                                    
                                                                                                    
                                                                                                    
                                                                                                    
                                                                                                    
                                                                                                    
                                                                                                    
                                                                                                    
                                                                                                    
                                                                                                    
                                                                                                    
                                                                                                    
                                                                                                    
                                                                                                    
                                                                                                    
                                                                                                    
                           
<?xpacket end="w"?></metadata>
<defs>
    <style>
      .cls-1 {
        fill: #666;
        fill-rule: evenodd;
      }
    </style>
  </defs>
  <path id="已作废" class="cls-1" d="M278.589,369.8A89.98,89.98,0,1,0,403.2,395.589,89.964,89.964,0,0,0,278.589,369.8m94.784,144.243a82.617,82.617,0,1,1,23.67-114.416,82.654,82.654,0,0,1-23.67,114.416M285.554,380.4a77.263,77.263,0,1,0,107,22.155,77.3,77.3,0,0,0-107-22.155m82.873,126.074a73.616,73.616,0,1,1,21.1-101.95,73.644,73.644,0,0,1-21.1,101.95M290.1,387.313l5.8,4.643,6.207-4.037-2.623,6.914,5.752,4.643-7.368-.353-2.624,6.914-1.969-7.116-7.418-.353,6.207-4.037-1.968-7.218m-20.793,21.4,7.166,1.766,3.886-6.308,0.556,7.369,7.166,1.715-6.813,2.827,0.555,7.368-4.8-5.653-6.813,2.827,3.886-6.308-4.794-5.6m48.7-32,3.28,6.662,7.319-1.06-5.3,5.148,3.281,6.612-6.561-3.433-5.3,5.148,1.262-7.317-6.561-3.432,7.319-1.061,1.261-7.267m29.828,2.17,0.152,7.369,7.116,2.12-7.016,2.473,0.152,7.368-4.493-5.854-7.015,2.422,4.24-6.107-4.492-5.905,7.066,2.12,4.29-6.006m-88.373,58.041,7.267-1.463,0.858-7.369,3.634,6.459,7.268-1.463-5.047,5.451,3.634,6.46-6.713-3.078-5.047,5.451L266.173,440l-6.711-3.079M365.9,502.637l-5.8-4.644-6.207,4.039,2.624-6.915-5.753-4.643,7.368,0.353,2.624-6.915,1.969,7.117,7.419,0.352-6.207,4.039,1.967,7.217m20.793-21.4-7.166-1.766-3.886,6.308-0.556-7.368-7.166-1.716,6.813-2.827L374.18,466.5l4.794,5.653,6.814-2.825-3.886,6.308,4.794,5.6m-48.753,32-3.281-6.662-7.317,1.059,5.3-5.148-3.28-6.611,6.561,3.432,5.3-5.147-1.262,7.317,6.562,3.432-7.319,1.06-1.261,7.268m-29.778-2.17-0.152-7.369-7.116-2.12,7.015-2.472-0.151-7.37,4.493,5.855,7.015-2.422-4.24,6.056,4.492,5.905-7.066-2.12-4.29,6.057m88.373-58.041-7.267,1.464-0.858,7.369-3.634-6.461-7.268,1.464,5.047-5.451-3.634-6.46,6.713,3.078,5.047-5.45-0.859,7.368,6.713,3.079m-96.877-5.234-21.8,16.25,1.918,2.656L298.821,452.5l5.015,6.947L288.869,470.6,286,466.634l-2.757,2.056L294.224,483.9q2.739,3.793,6.3,1.139l15.943-11.882a5.37,5.37,0,0,0,2-3.107q0.132-1.713-3.312-7.587l-3.3,1.116q3.1,4.783,2.9,5.917a2.551,2.551,0,0,1-.971,1.532l-14.42,10.748a1.733,1.733,0,0,1-2.76-.457l-5.816-8.056,17.724-13.21Zm23.507-9.485,14.73,20.4,2.757-2.056-4.762-6.6,8.13-6.059-1.918-2.657-8.13,6.06-3.1-4.291,8.072-6.016-1.939-2.686-8.072,6.017-3.013-4.174,9.221-6.873-1.959-2.715-11.836,8.822q-0.622-2.454-1.265-4.445l-3.2,1.442q2.874,9.306,2.36,16.244l3.681,0.937a44.406,44.406,0,0,0-.794-10.586Zm3.9,28.475,2.758-2.056-14.16-19.614a43.1,43.1,0,0,0-1.708-8.425l-3.47.7a39.548,39.548,0,0,1,1.774,16.411l3.068,2.292q0.355-2.688.486-4.9Zm27.4-41.481a30.772,30.772,0,0,1,.583,16.536l3,1.4a30.282,30.282,0,0,0,.824-12.691,15.679,15.679,0,0,0,5.647,1.089,54.489,54.489,0,0,1-4.133,6.762l2.837,1.3a49.592,49.592,0,0,0,4.682-8.2,47.282,47.282,0,0,0,9.277-2.021l-0.395-3.118A50.1,50.1,0,0,1,369,428.476a13.517,13.517,0,0,0,.208-7.607l-1.581-2.189-9.652,7.194q-0.55-1.925-.778-2.608L368.29,415l-1.77-2.452-10.371,7.729q-1.047-2.675-2.381-5.318l-2.867,1.6q1.465,2.947,2.548,5.733l-3.045,2.269-1.518-4.795-2.83,1.526,2.843,8.162ZM366.6,423a14.657,14.657,0,0,1-.888,5.87,15.627,15.627,0,0,1-5.949-.774Zm-9.909-8.462a26.827,26.827,0,0,1,5.51.472l0.5-3.158a30.864,30.864,0,0,0-5.541-.27Zm-11.477-2.31a22.886,22.886,0,0,1,2.567,1.229L337.09,421.42l6.533,9.049q6.087,8.616,7.293,15.305l3.517,0.342q-1.316-7.819-8.139-17.639l-4.593-6.363,21-15.651-1.939-2.685-10.112,7.536a32.05,32.05,0,0,0-2.875-1.718Z" transform="translate(-237 -354)"/>
</svg>
