<svg xmlns="http://www.w3.org/2000/svg" width="26" height="224" viewBox="0 0 26 224">
  <metadata><?xpacket begin="﻿" id="W5M0MpCehiHzreSzNTczkc9d"?>
<x:xmpmeta xmlns:x="adobe:ns:meta/" x:xmptk="Adobe XMP Core 5.6-c138 79.159824, 2016/09/14-01:09:01        ">
   <rdf:RDF xmlns:rdf="http://www.w3.org/1999/02/22-rdf-syntax-ns#">
      <rdf:Description rdf:about=""/>
   </rdf:RDF>
</x:xmpmeta>
                                                                                                    
                                                                                                    
                                                                                                    
                                                                                                    
                                                                                                    
                                                                                                    
                                                                                                    
                                                                                                    
                                                                                                    
                                                                                                    
                                                                                                    
                                                                                                    
                                                                                                    
                                                                                                    
                                                                                                    
                                                                                                    
                                                                                                    
                                                                                                    
                                                                                                    
                                                                                                    
                           
<?xpacket end="w"?></metadata>
<defs>
    <style>
      .cls-1 {
        fill: #f3f5f7;
        fill-rule: evenodd;
      }
    </style>
  </defs>
  <path id="椭圆_1_拷贝_2" data-name="椭圆 1 拷贝 2" class="cls-1" d="M546,358a12,12,0,1,1-12,12A12,12,0,0,1,546,358Zm0,198a12,12,0,1,1-12,12A12,12,0,0,1,546,556Zm0-170a2,2,0,1,1-2,2A2,2,0,0,1,546,386Zm0,8a2,2,0,1,1-2,2A2,2,0,0,1,546,394Zm0,8a2,2,0,1,1-2,2A2,2,0,0,1,546,402Zm0,8a2,2,0,1,1-2,2A2,2,0,0,1,546,410Zm0,8a2,2,0,1,1-2,2A2,2,0,0,1,546,418Zm0,8a2,2,0,1,1-2,2A2,2,0,0,1,546,426Zm0,8a2,2,0,1,1-2,2A2,2,0,0,1,546,434Zm0,8a2,2,0,1,1-2,2A2,2,0,0,1,546,442Zm0,8a2,2,0,1,1-2,2A2,2,0,0,1,546,450Zm0,8a2,2,0,1,1-2,2A2,2,0,0,1,546,458Zm0,9a2,2,0,1,1-2,2A2,2,0,0,1,546,467Zm0,8a2,2,0,1,1-2,2A2,2,0,0,1,546,475Zm0,8a2,2,0,1,1-2,2A2,2,0,0,1,546,483Zm0,8a2,2,0,1,1-2,2A2,2,0,0,1,546,491Zm0,8a2,2,0,1,1-2,2A2,2,0,0,1,546,499Zm0,8a2,2,0,1,1-2,2A2,2,0,0,1,546,507Zm0,8a2,2,0,1,1-2,2A2,2,0,0,1,546,515Zm0,8a2,2,0,1,1-2,2A2,2,0,0,1,546,523Zm0,8a2,2,0,1,1-2,2A2,2,0,0,1,546,531Zm0,8a2,2,0,1,1-2,2A2,2,0,0,1,546,539Zm0,8a2,2,0,1,1-2,2A2,2,0,0,1,546,547Z" transform="translate(-533 -357)"/>
</svg>
