<svg xmlns="http://www.w3.org/2000/svg" width="169.938" height="169.969" viewBox="0 0 169.938 169.969">
  <metadata><?xpacket begin="﻿" id="W5M0MpCehiHzreSzNTczkc9d"?>
<x:xmpmeta xmlns:x="adobe:ns:meta/" x:xmptk="Adobe XMP Core 5.6-c140 79.160451, 2017/05/06-01:08:21        ">
   <rdf:RDF xmlns:rdf="http://www.w3.org/1999/02/22-rdf-syntax-ns#">
      <rdf:Description rdf:about=""/>
   </rdf:RDF>
</x:xmpmeta>
                                                                                                    
                                                                                                    
                                                                                                    
                                                                                                    
                                                                                                    
                                                                                                    
                                                                                                    
                                                                                                    
                                                                                                    
                                                                                                    
                                                                                                    
                                                                                                    
                                                                                                    
                                                                                                    
                                                                                                    
                                                                                                    
                                                                                                    
                                                                                                    
                                                                                                    
                                                                                                    
                           
<?xpacket end="w"?></metadata>
<defs>
    <style>
      .cls-1 {
        fill: #fb103b;
        fill-rule: evenodd;
        opacity: 0.02;
      }
    </style>
  </defs>
  <path id="券" class="cls-1" d="M443.484,659.416a84.966,84.966,0,1,0,31.1,116.066A84.967,84.967,0,0,0,443.484,659.416Zm-80.192,138.9a75.417,75.417,0,1,1,103.021-27.605A75.417,75.417,0,0,1,363.292,798.312Zm19.5-57.289a33.072,33.072,0,0,1-11.589,6.7c-5.189,1.318-11.762,1.5-19.635.583l1.405,10.347c9.216,0.553,16.926-.217,23.228-2.482,4.789-2,9.755-5.492,14.849-10.384l18.561,10.716c-4.519,7.04-7.868,11.464-10.167,13.087-2.166,1.588-4.763,1.564-7.828-.205-3.746-2.163-7.649-4.644-11.759-7.357l-2.518,9.671,13.963,8.061c3.5,1.8,6.7,2.164,9.4,1.225,2.712-1.159,5.919-3.961,9.451-8.506,2.969-3.962,6.455-9.214,10.531-15.488a100.446,100.446,0,0,0,6.5,13.515l9.968-3.894q-9.526-12.991-11.528-23.683l16.006,9.241,4.621-8-40.7-23.5a77.193,77.193,0,0,0,7.521-4.966L445.6,734.487l4.522-7.833L438.8,720.116a56.344,56.344,0,0,0,12.287-7.322l-5.834-7a51.892,51.892,0,0,1-13.034,8.026l2.239,3.791-13.963-8.062a108.492,108.492,0,0,0,10.34-10.831l-8.215-6.218a112.85,112.85,0,0,1-11.149,11.839L401,698.292l5.253,0.535A85.944,85.944,0,0,0,407,684.162l-9.137-1.87a84.05,84.05,0,0,1-.44,13.935L385.585,689.4l-4.522,7.833L403.709,710.3a81.555,81.555,0,0,1-8.032,4.671l-23.328-13.469-4.62,8,16.687,9.635a69.389,69.389,0,0,1-27.188,1.671l0.613,10.343a90.677,90.677,0,0,0,17.378-.41l-2.556,4.427Zm12.775-15.441,20.773,11.993a50.726,50.726,0,0,0,2.246,13.216L382.064,729.7A87.435,87.435,0,0,0,395.569,725.582Z" transform="translate(-316.031 -648)"/>
</svg>
