<?xml version="1.0" standalone="no"?><!DOCTYPE svg PUBLIC "-//W3C//DTD SVG 1.1//EN" "http://www.w3.org/Graphics/SVG/1.1/DTD/svg11.dtd"><svg class="icon" width="200px" height="200.00px" viewBox="0 0 1024 1024" version="1.1" xmlns="http://www.w3.org/2000/svg"><path d="M0.000137 0h1023.800039v1023.800039H0.000137z" fill="#F6F6F6" /><path d="M742.355145 255.95001H279.645518c-24.295255 0-44.191369 18.096466-44.191368 42.39172v425.21695c0 24.295255 19.896114 44.291349 44.191368 44.291349h466.408905c24.295255 0 42.39172-19.896114 42.39172-44.291349V298.34173c-0.09998-24.295255-21.795743-42.39172-46.090998-42.39172z m-328.735793 62.987697c37.392697 0 67.78676 30.294083 67.78676 67.68678s-30.394064 67.68678-67.78676 67.68678-67.78676-30.294083-67.786761-67.68678c0-37.392697 30.294083-67.68678 67.786761-67.68678zM297.741984 714.160516c-5.099004 0-10.198008-1.799649-14.397188-5.298966-9.298184-7.998438-10.397969-21.895723-2.399531-31.193907l101.58016-153.170084c7.498535-8.798282 20.595977-10.297989 29.894161-3.399336l89.682484 66.586995 160.668619-182.464363c7.598516-9.498145 47.990627-54.489358 71.586019-3.499316 0-0.09998 0.09998 67.386839 0.09998 136.373364v176.065613c-0.499902-0.199961-436.514743 0-436.714704 0z" fill="#DDDDDD" /></svg>